#!OML:ASF E:\emotionWalksFemale\Project 1\Capture day 1\Session 1\Female1.ASF
:FULLY-SPECIFIED
:DEGREES
355
root 7.33517 14.8878 39.0084 182.778 -0.964104 -179.285
lowerback 9.70145 -0.838685 -5.71476
upperback -2.94129 -2.03627 -1.20405
thorax -8.44772 -0.75374 2.27949
lowerneck -10.8686 -3.49695 -8.85662
upperneck 6.63188 -4.25094 10.0615
head 4.16686 -1.7601 4.26491
rclavicle 2.3233e-015 6.36111e-014
rhumerus -47.2029 -2.60941 -76.5814
rradius 41.4207
rwrist 13.9153
rhand 0.725507 -49.9259
rfingers 7.12502
rthumb 26.2851 -78.1249
lclavicle 2.3233e-015 6.36111e-014
lhumerus -31.0365 -6.4503 75.1017
lradius 33.1608
lwrist -15.1558
lhand -2.79823 -33.2107
lfingers 7.12502
lthumb 22.9076 -4.55146
rfemur -35.326 8.87801 20.4461
rtibia 37.6545
rfoot -23.9262 -21.1096
rtoes -7.96282
lfemur 10.6944 -23.8033 -31.0938
ltibia 15.5057
lfoot -29.5901 21.1258
ltoes -28.2292
356
root 7.35572 14.8722 38.9114 182.713 -0.627728 -179.24
lowerback 9.32967 -0.661701 -5.71532
upperback -2.8181 -1.76786 -1.22743
thorax -8.11983 -0.63612 2.20145
lowerneck -10.707 -3.58737 -9.16795
upperneck 6.46106 -4.34263 10.1882
head 4.10712 -1.81304 4.35019
rclavicle 1.35174e-014 4.45278e-014
rhumerus -47.0792 -2.24175 -76.3659
rradius 42.0174
rwrist 13.9751
rhand 0.34715 -50.5316
rfingers 7.12502
rthumb 25.9228 -78.7841
lclavicle 1.35174e-014 4.45278e-014
lhumerus -29.8063 -5.8968 75.0285
lradius 34.1777
lwrist -12.4864
lhand -0.678967 -33.4
lfingers 7.12502
lthumb 24.9399 -5.00736
rfemur -35.39 9.42389 20.4085
rtibia 37.9021
rfoot -24.0042 -19.9377
rtoes -2.0568
lfemur 11.4221 -23.9453 -31.3442
ltibia 15.217
lfoot -29.8885 21.461
ltoes -28.4157
357
root 7.37872 14.8517 38.8227 182.386 -0.622722 -179.191
lowerback 9.60306 -0.551299 -5.62092
upperback -2.75122 -1.63148 -1.30069
thorax -8.22103 -0.574763 2.05457
lowerneck -10.5688 -3.67863 -9.44833
upperneck 6.43803 -4.44891 10.3215
head 4.09742 -1.87016 4.4317
rclavicle 1.45237e-014 -9.54166e-015
rhumerus -47.0576 -1.78587 -76.2292
rradius 42.4193
rwrist 13.9251
rhand -0.38999 -50.5746
rfingers 7.12502
rthumb 25.2168 -78.9285
lclavicle 1.45237e-014 -9.54166e-015
lhumerus -28.8382 -6.09871 75.1788
lradius 34.8961
lwrist -11.0124
lhand -1.63354 -33.3235
lfingers 7.12502
lthumb 24.0248 -4.80713
rfemur -35.0873 9.80838 20.4424
rtibia 38.3107
rfoot -24.6465 -19.1221
rtoes 2.59214
lfemur 12.3883 -23.9048 -31.5433
ltibia 14.8805
lfoot -29.8355 21.519
ltoes -29.4122
358
root 7.40758 14.8336 38.7381 182.25 -0.895038 -179.139
lowerback 9.85587 -0.5253 -5.595
upperback -2.78016 -1.61941 -1.3526
thorax -8.40257 -0.56668 1.98836
lowerneck -10.4811 -3.78446 -9.7291
upperneck 6.4531 -4.5824 10.5861
head 4.11455 -1.93032 4.5527
rclavicle -1.22253e-014 2.38542e-015
rhumerus -46.9104 -1.42491 -76.1496
rradius 42.4591
rwrist 14.0927
rhand -0.73077 -50.8871
rfingers 7.12502
rthumb 24.8902 -79.2866
lclavicle -1.22253e-014 2.38542e-015
lhumerus -27.8316 -6.74418 75.3327
lradius 35.6852
lwrist -8.83073
lhand -1.54862 -33.5891
lfingers 7.12502
lthumb 24.1063 -5.08344
rfemur -34.9113 9.80835 20.5468
rtibia 38.7721
rfoot -25.2721 -18.7616
rtoes 2.2771
lfemur 12.9641 -23.6943 -31.4239
ltibia 14.7259
lfoot -29.8009 21.0717
ltoes -29.8395
359
root 7.42517 14.8121 38.622 182.178 -0.630794 -178.973
lowerback 9.48465 -0.377065 -5.32896
upperback -2.72906 -1.36361 -1.41951
thorax -8.15603 -0.465891 1.71957
lowerneck -10.6166 -3.89935 -9.80532
upperneck 6.67118 -4.73195 10.5866
head 4.22041 -2.00121 4.55301
rclavicle 5.87657e-015 2.62396e-014
rhumerus -47.0054 -1.18947 -76.0428
rradius 42.8799
rwrist 14.5753
rhand -0.993997 -51.4514
rfingers 7.12502
rthumb 24.638 -79.8855
lclavicle 5.87657e-015 2.62396e-014
lhumerus -26.7242 -7.34668 75.4446
lradius 36.5069
lwrist -6.60046
lhand -1.0241 -33.6819
lfingers 7.12502
lthumb 24.6091 -5.24385
rfemur -34.721 9.88735 20.8532
rtibia 39.2744
rfoot -24.7348 -18.9337
rtoes -2.80013
lfemur 13.812 -24.1832 -31.7701
ltibia 14.6001
lfoot -30.109 21.7321
ltoes -29.4537
